{
  "accessors": [
    {
      "bufferView": 2,
      "componentType": 5126,
      "count": 414,
      "max": [
        0.4032000005245209,
        -0.007400000002235174,
        0.9975000023841858
      ],
      "min": [
        -2.0074000358581543,
        -2.430000066757202,
        0.00019999999494757503
      ],
      "type": "VEC3"
    },
    {
      "bufferView": 2,
      "byteOffset": 4968,
      "componentType": 5126,
      "count": 414,
      "max": [
        0.9996381402015686,
        0.9997468590736389,
        1.0
      ],
      "min": [
        -0.9996381402015686,
        -0.9997468590736389,
        -1.0
      ],
      "type": "VEC3"
    },
    {
      "bufferView": 3,
      "componentType": 5126,
      "count": 414,
      "max": [
        0.9145868420600891,
        0.7459339499473572,
        0.9990587830543518,
        1.0
      ],
      "min": [
        -0.9156492352485657,
        -0.7472213506698608,
        -0.9990622401237488,
        1.0
      ],
      "type": "VEC4"
    },
    {
      "bufferView": 1,
      "componentType": 5126,
      "count": 414,
      "max": [
        0.9944999814033508,
        0.9927999973297119
      ],
      "min": [
        0.007400000002235174,
        0.006500000134110451
      ],
      "type": "VEC2"
    },
    {
      "bufferView": 1,
      "byteOffset": 3312,
      "componentType": 5126,
      "count": 414,
      "max": [
        0.9944999814033508,
        0.9927999973297119
      ],
      "min": [
        0.007400000002235174,
        0.006500000134110451
      ],
      "type": "VEC2"
    },
    {
      "bufferView": 1,
      "byteOffset": 6624,
      "componentType": 5126,
      "count": 414,
      "max": [
        0.9944999814033508,
        0.9927999973297119
      ],
      "min": [
        0.007400000002235174,
        0.006500000134110451
      ],
      "type": "VEC2"
    },
    {
      "bufferView": 1,
      "byteOffset": 9936,
      "componentType": 5126,
      "count": 414,
      "max": [
        0.9944999814033508,
        0.9927999973297119
      ],
      "min": [
        0.007400000002235174,
        0.006500000134110451
      ],
      "type": "VEC2"
    },
    {
      "bufferView": 0,
      "componentType": 5125,
      "count": 2256,
      "type": "SCALAR"
    },
    {
      "bufferView": 2,
      "byteOffset": 9936,
      "componentType": 5126,
      "count": 268,
      "max": [
        3.045599937438965,
        3.3977999687194824,
        1.0932999849319458
      ],
      "min": [
        -1.451799988746643,
        -0.9514999985694885,
        -0.0003000000142492354
      ],
      "type": "VEC3"
    },
    {
      "bufferView": 2,
      "byteOffset": 13152,
      "componentType": 5126,
      "count": 268,
      "max": [
        0.987148106098175,
        0.9964906573295593,
        1.0
      ],
      "min": [
        -0.8180080056190491,
        -0.9871664643287659,
        -1.0
      ],
      "type": "VEC3"
    },
    {
      "bufferView": 3,
      "byteOffset": 6624,
      "componentType": 5126,
      "count": 268,
      "max": [
        0.9871664047241211,
        0.9648441076278687,
        1.0,
        1.0
      ],
      "min": [
        -0.9964905381202698,
        -0.8332327008247375,
        -0.9996144771575928,
        -1.0
      ],
      "type": "VEC4"
    },
    {
      "bufferView": 1,
      "byteOffset": 13248,
      "componentType": 5126,
      "count": 268,
      "max": [
        0.9961000084877014,
        0.9970999956130981
      ],
      "min": [
        0.006899999920278788,
        0.0035000001080334187
      ],
      "type": "VEC2"
    },
    {
      "bufferView": 1,
      "byteOffset": 15392,
      "componentType": 5126,
      "count": 268,
      "max": [
        0.9961000084877014,
        0.9970999956130981
      ],
      "min": [
        0.006899999920278788,
        0.0035000001080334187
      ],
      "type": "VEC2"
    },
    {
      "bufferView": 1,
      "byteOffset": 17536,
      "componentType": 5126,
      "count": 268,
      "max": [
        0.9961000084877014,
        0.9970999956130981
      ],
      "min": [
        0.006899999920278788,
        0.0035000001080334187
      ],
      "type": "VEC2"
    },
    {
      "bufferView": 1,
      "byteOffset": 19680,
      "componentType": 5126,
      "count": 268,
      "max": [
        0.9961000084877014,
        0.9970999956130981
      ],
      "min": [
        0.006899999920278788,
        0.0035000001080334187
      ],
      "type": "VEC2"
    },
    {
      "bufferView": 0,
      "byteOffset": 9024,
      "componentType": 5125,
      "count": 564,
      "type": "SCALAR"
    }
  ],
  "asset": {
    "extras": {
      "author": "plaggy (https://sketchfab.com/plaggy)",
      "license": "CC-BY-4.0 (http://creativecommons.org/licenses/by/4.0/)",
      "source": "https://sketchfab.com/3d-models/cc0-soap-4-1e8d2fa9a2704b54a82a5ba900afa38d",
      "title": "CC0 - Soap 4"
    },
    "generator": "Sketchfab-10.85.0",
    "version": "2.0"
  },
  "bufferViews": [
    {
      "buffer": 0,
      "byteLength": 11280,
      "name": "floatBufferViews",
      "target": 34963
    },
    {
      "buffer": 0,
      "byteLength": 21824,
      "byteOffset": 11280,
      "byteStride": 8,
      "name": "floatBufferViews",
      "target": 34962
    },
    {
      "buffer": 0,
      "byteLength": 16368,
      "byteOffset": 33104,
      "byteStride": 12,
      "name": "floatBufferViews",
      "target": 34962
    },
    {
      "buffer": 0,
      "byteLength": 10912,
      "byteOffset": 49472,
      "byteStride": 16,
      "name": "floatBufferViews",
      "target": 34962
    }
  ],
  "buffers": [
    {
      "byteLength": 60384,
      "uri": "scene.bin"
    }
  ],
  "images": [
    {
      "uri": "textures/Soap4_baseColor.png"
    },
    {
      "uri": "textures/Soap4_metallicRoughness.png"
    },
    {
      "uri": "textures/Soap4_normal.png"
    },
    {
      "uri": "textures/Soap4Box_baseColor.png"
    },
    {
      "uri": "textures/Soap4Box_metallicRoughness.png"
    },
    {
      "uri": "textures/Soap4Box_normal.png"
    }
  ],
  "materials": [
    {
      "name": "Soap4",
      "normalTexture": {
        "index": 2
      },
      "pbrMetallicRoughness": {
        "baseColorTexture": {
          "index": 0
        },
        "metallicRoughnessTexture": {
          "index": 1
        }
      }
    },
    {
      "name": "Soap4Box",
      "normalTexture": {
        "index": 5
      },
      "occlusionTexture": {
        "index": 4
      },
      "pbrMetallicRoughness": {
        "baseColorTexture": {
          "index": 3
        },
        "metallicRoughnessTexture": {
          "index": 4
        }
      }
    }
  ],
  "meshes": [
    {
      "name": "Soap4_Soap4_0",
      "primitives": [
        {
          "attributes": {
            "NORMAL": 1,
            "POSITION": 0,
            "TANGENT": 2,
            "TEXCOORD_0": 3,
            "TEXCOORD_1": 4,
            "TEXCOORD_2": 5,
            "TEXCOORD_3": 6
          },
          "indices": 7,
          "material": 0,
          "mode": 4
        }
      ]
    },
    {
      "name": "Soap4Box_Soap4Box_0",
      "primitives": [
        {
          "attributes": {
            "NORMAL": 9,
            "POSITION": 8,
            "TANGENT": 10,
            "TEXCOORD_0": 11,
            "TEXCOORD_1": 12,
            "TEXCOORD_2": 13,
            "TEXCOORD_3": 14
          },
          "indices": 15,
          "material": 1,
          "mode": 4
        }
      ]
    }
  ],
  "nodes": [
    {
      "children": [
        1
      ],
      "matrix": [
        1.0,
        0.0,
        0.0,
        0.0,
        0.0,
        2.220446049250313e-16,
        -1.0,
        0.0,
        0.0,
        1.0,
        2.220446049250313e-16,
        0.0,
        0.0,
        0.0,
        0.0,
        1.0
      ],
      "name": "Sketchfab_model"
    },
    {
      "children": [
        2
      ],
      "matrix": [
        1.0,
        0.0,
        0.0,
        0.0,
        0.0,
        0.0,
        1.0,
        0.0,
        0.0,
        -1.0,
        0.0,
        0.0,
        0.0,
        0.0,
        0.0,
        1.0
      ],
      "name": "0989a9fc084f478ca2fbb1408e60fa51.fbx"
    },
    {
      "children": [
        3,
        5
      ],
      "name": "RootNode"
    },
    {
      "children": [
        4
      ],
      "matrix": [
        0.02539999969303608,
        0.0,
        0.0,
        0.0,
        0.0,
        5.639932896936113e-18,
        -0.02539999969303608,
        0.0,
        0.0,
        0.02539999969303608,
        5.639932896936113e-18,
        0.0,
        0.0,
        0.0,
        0.0,
        1.0
      ],
      "name": "Soap4"
    },
    {
      "mesh": 0,
      "name": "Soap4_Soap4_0"
    },
    {
      "children": [
        6
      ],
      "matrix": [
        0.02539999969303608,
        0.0,
        0.0,
        0.0,
        0.0,
        5.639932896936113e-18,
        -0.02539999969303608,
        0.0,
        0.0,
        0.02539999969303608,
        5.639932896936113e-18,
        0.0,
        0.0,
        0.0,
        0.0,
        1.0
      ],
      "name": "Soap4Box"
    },
    {
      "mesh": 1,
      "name": "Soap4Box_Soap4Box_0"
    }
  ],
  "samplers": [
    {
      "magFilter": 9729,
      "minFilter": 9987,
      "wrapS": 10497,
      "wrapT": 10497
    }
  ],
  "scene": 0,
  "scenes": [
    {
      "name": "Sketchfab_Scene",
      "nodes": [
        0
      ]
    }
  ],
  "textures": [
    {
      "sampler": 0,
      "source": 0
    },
    {
      "sampler": 0,
      "source": 1
    },
    {
      "sampler": 0,
      "source": 2
    },
    {
      "sampler": 0,
      "source": 3
    },
    {
      "sampler": 0,
      "source": 4
    },
    {
      "sampler": 0,
      "source": 5
    }
  ]
}
